<?xml version="1.0" standalone="no"?>
<!DOCTYPE svg PUBLIC "-//W3C//DTD SVG 20010904//EN"
 "http://www.w3.org/TR/2001/REC-SVG-20010904/DTD/svg10.dtd">
<svg version="1.0" xmlns="http://www.w3.org/2000/svg"
 width="400.000000pt" height="400.000000pt" viewBox="0 0 400.000000 400.000000"
 preserveAspectRatio="xMidYMid meet">
<metadata>
Created by potrace 1.14, written by Peter Selinger 2001-2017
</metadata>
<g transform="translate(0.000000,400.000000) scale(0.100000,-0.100000)"
fill="#000000" stroke="none">
<path d="M1854 2696 c-139 -31 -240 -72 -346 -143 -98 -65 -159 -122 -234
-219 -89 -116 -174 -320 -174 -416 0 -76 86 -105 280 -94 186 11 603 86 673
121 17 9 48 18 68 20 52 6 329 110 443 167 106 53 195 114 220 150 35 50 14
101 -76 183 -184 168 -367 242 -613 251 -112 4 -146 1 -241 -20z m326 -156
c11 -21 -1 -95 -18 -112 -6 -6 2 -20 19 -38 31 -30 35 -54 19 -111 -10 -35
-52 -81 -128 -139 l-33 -25 31 -42 c44 -60 38 -81 -32 -116 -45 -23 -65 -28
-95 -22 -62 10 -65 14 -48 71 9 30 11 50 5 52 -6 2 -8 7 -6 11 3 4 -22 5 -54
3 -47 -3 -66 0 -93 17 -35 21 -87 87 -87 109 0 7 -11 17 -24 22 -13 5 -40 23
-60 40 -28 25 -36 40 -36 65 0 20 6 35 15 39 8 3 15 1 15 -4 0 -4 12 -22 26
-39 35 -41 68 -41 90 1 22 42 102 126 139 146 55 29 171 33 276 10 10 -3 15 8
34 70 6 19 33 14 45 -8z m-54 -555 c-3 -8 -10 -15 -15 -15 -7 0 -6 10 1 26 12
26 25 16 14 -11z"/>
<path d="M2090 2332 c0 -25 25 -58 34 -44 7 12 -13 62 -26 62 -4 0 -8 -8 -8
-18z"/>
<path d="M2000 2291 c0 -5 7 -14 15 -21 33 -27 6 -56 -41 -44 -15 4 -34 0 -49
-10 -27 -18 -45 -14 -45 10 0 15 -16 19 -23 7 -3 -5 -1 -18 4 -30 6 -17 16
-23 38 -23 16 0 33 5 36 10 3 6 26 10 50 10 34 0 47 5 59 22 20 29 20 34 -4
58 -21 21 -40 26 -40 11z"/>
<path d="M2120 2265 c-10 -12 -9 -15 7 -15 10 0 28 7 39 15 18 14 18 14 -7 15
-15 0 -32 -7 -39 -15z"/>
<path d="M1740 2236 c0 -17 22 -56 29 -52 13 8 0 56 -15 56 -8 0 -14 -2 -14
-4z"/>
<path d="M1738 2156 c-22 -16 -23 -23 -3 -23 8 0 22 9 32 19 13 14 13 18 2 18
-8 0 -22 -7 -31 -14z"/>
<path d="M3195 2584 c-147 -22 -311 -62 -418 -103 l-27 -11 34 -44 c19 -25 36
-50 38 -56 2 -7 34 -6 103 4 257 38 397 49 632 50 134 1 243 5 243 9 0 5 -15
24 -32 41 -39 39 -125 73 -230 92 -81 14 -292 25 -343 18z"/>
<path d="M2915 2575 c-5 -2 -63 -9 -128 -16 -65 -7 -120 -16 -123 -20 -2 -4 8
-16 24 -27 l28 -20 98 29 c54 16 128 35 164 43 l67 14 -60 0 c-33 0 -64 -1
-70 -3z"/>
<path d="M3435 2393 c-22 -1 -105 -8 -185 -14 -138 -10 -334 -32 -391 -44 -18
-4 -32 -18 -44 -45 -19 -42 -69 -94 -127 -133 l-38 -25 30 -4 c19 -3 27 -1 23
6 -5 7 -2 7 8 0 8 -6 47 -14 88 -18 168 -15 342 -56 434 -102 37 -19 49 -31
54 -54 3 -17 8 -30 10 -30 9 0 151 86 235 142 209 140 326 300 233 319 -31 7
-257 8 -330 2z"/>
<path d="M1071 2110 c-88 -32 -83 -41 7 -15 29 9 52 20 52 25 0 12 6 13 -59
-10z"/>
<path d="M2505 2060 c-92 -45 -340 -133 -465 -165 l-85 -21 0 -155 c1 -160 16
-256 42 -266 47 -18 714 200 968 317 203 93 264 124 269 136 3 8 1 25 -4 38
-23 62 -288 133 -560 150 -83 5 -87 5 -165 -34z"/>
<path d="M965 2041 c-186 -58 -296 -111 -487 -238 -96 -63 -224 -177 -247
-222 -12 -22 -12 -22 27 3 118 74 478 229 704 303 57 18 88 33 88 43 1 14 27
91 45 133 9 21 13 22 -130 -22z"/>
<path d="M903 1835 c-258 -97 -327 -126 -468 -196 -179 -89 -235 -129 -235
-168 0 -40 43 -89 105 -117 65 -31 76 -30 100 8 42 67 317 255 542 370 124 65
151 82 140 91 -8 7 -21 24 -28 39 l-14 27 -142 -54z"/>
<path d="M1860 1848 c-19 -4 -113 -22 -208 -38 -180 -31 -390 -40 -474 -21
-34 8 -48 4 -140 -43 -57 -29 -141 -74 -187 -100 -194 -110 -431 -287 -431
-322 0 -19 112 -35 295 -41 318 -11 737 37 1137 129 l87 20 -11 26 c-6 15 -16
110 -22 212 l-11 186 -35 -8z"/>
</g>
</svg>
